<svg width="24" height="24" viewBox="0 0 24 24" fill="none" xmlns="http://www.w3.org/2000/svg">
<path d="M0 12C0 5.3726 5.3726 0 12 0C18.6274 0 24 5.3726 24 12C24 18.6274 18.6274 24 12 24C5.3726 24 0 18.6274 0 12Z" fill="#333333"/>
<path d="M9.59995 19.2C10.9254 19.2 12 18.1254 12 16.8V14.4H9.59995C8.27447 14.4 7.19995 15.4745 7.19995 16.8C7.19995 18.1254 8.27447 19.2 9.59995 19.2Z" fill="#0ACF83"/>
<path d="M7.19995 12C7.19995 10.6745 8.27447 9.59998 9.59995 9.59998H12V14.4H9.59995C8.27447 14.4 7.19995 13.3255 7.19995 12Z" fill="#A259FF"/>
<path d="M7.19995 7.19999C7.19995 5.8745 8.27447 4.79999 9.59995 4.79999H12V9.59999H9.59995C8.27447 9.59999 7.19995 8.52547 7.19995 7.19999Z" fill="#F24E1E"/>
<path d="M12 4.79999H14.4C15.7255 4.79999 16.8 5.8745 16.8 7.19999C16.8 8.52547 15.7255 9.59999 14.4 9.59999H12V4.79999Z" fill="#FF7262"/>
<path d="M16.8 12C16.8 13.3255 15.7255 14.4 14.4 14.4C13.0745 14.4 12 13.3255 12 12C12 10.6745 13.0745 9.59998 14.4 9.59998C15.7255 9.59998 16.8 10.6745 16.8 12Z" fill="#1ABCFE"/>
</svg>
