<svg width="276" height="37" viewBox="0 0 276 37" fill="none" xmlns="http://www.w3.org/2000/svg">
<g clip-path="url(#clip0_2012_1936)">
<g clip-path="url(#clip1_2012_1936)">
<g clip-path="url(#clip2_2012_1936)">
<g clip-path="url(#clip3_2012_1936)">
<path d="M64.1787 2.76118C64.1787 1.23622 63.4485 0 62.5478 0C61.6472 0 60.917 1.23622 60.917 2.76118V33.7857C60.917 35.3107 61.6472 36.5469 62.5478 36.5469C63.4485 36.5469 64.1787 35.3107 64.1787 33.7857V2.76118Z" fill="#EB84C0"/>
<g clip-path="url(#clip4_2012_1936)">
<g clip-path="url(#clip5_2012_1936)">
<g clip-path="url(#clip6_2012_1936)">
<g clip-path="url(#clip7_2012_1936)">
<path d="M82.2287 29.183C80.074 29.183 78.222 28.7626 76.6726 27.9218C75.1181 27.0862 73.8022 25.9333 72.7249 24.4632L75.1104 22.4516C76.0595 23.7153 77.1112 24.6747 78.2656 25.3298C79.4199 25.9901 80.7794 26.3202 82.3441 26.3202C84.268 26.3202 85.7378 25.8559 86.7536 24.9275C87.7643 23.999 88.2696 22.761 88.2696 21.2136C88.2696 20.3625 88.1029 19.6404 87.7694 19.0472C87.4359 18.454 86.905 17.9562 86.1765 17.5539C85.4428 17.1567 84.486 16.8292 83.3061 16.5712L81.1129 16.0683C79.4968 15.6815 78.1245 15.1785 76.9958 14.5596C75.8672 13.9406 75.0078 13.1411 74.4178 12.161C73.8279 11.181 73.5329 10.0075 73.5329 8.64057C73.5329 7.04154 73.9048 5.69268 74.6487 4.59399C75.3926 3.50046 76.4392 2.66999 77.7884 2.1026C79.1326 1.5352 80.6768 1.2515 82.4211 1.2515C84.4476 1.2515 86.1867 1.62547 87.6386 2.3734C89.0853 3.12133 90.3089 4.21744 91.3093 5.66173L88.8852 7.4413C88.167 6.40966 87.2769 5.59725 86.2149 5.00406C85.1478 4.41088 83.8319 4.11428 82.2672 4.11428C80.5485 4.11428 79.1941 4.48825 78.204 5.23618C77.219 5.98412 76.7265 7.08023 76.7265 8.52451C76.7265 9.37561 76.9137 10.0849 77.2882 10.6523C77.6576 11.2197 78.2143 11.689 78.9581 12.0604C79.702 12.437 80.6383 12.7542 81.767 13.0121L83.9602 13.515C85.7045 13.9019 87.1281 14.4306 88.2311 15.1012C89.3341 15.7717 90.1499 16.597 90.6783 17.5771C91.2016 18.5571 91.4632 19.7177 91.4632 21.0589C91.4632 22.7095 91.0913 24.1409 90.3474 25.353C89.6035 26.5652 88.5466 27.5066 87.1769 28.1771C85.8019 28.8477 84.1526 29.183 82.2287 29.183ZM103.16 29.183C101.134 29.183 99.5101 28.5176 98.2891 27.1868C97.0732 25.8611 96.4652 23.9861 96.4652 21.5618V8.75663H99.5434V21.0202C99.5434 22.7997 99.9282 24.1409 100.698 25.0435C101.467 25.9462 102.596 26.3976 104.084 26.3976C104.905 26.3976 105.679 26.2609 106.408 25.9875C107.141 25.7193 107.739 25.3014 108.201 24.734C108.662 24.1666 108.893 23.4445 108.893 22.5676V8.75663H111.972V28.7187H108.893V25.4691H108.739C108.355 26.4233 107.744 27.2796 106.908 28.0379C106.077 28.8013 104.828 29.183 103.16 29.183ZM121.583 36.456H118.505V8.75663H121.583V12.0063H121.745C122.258 10.7425 123.014 9.80632 124.015 9.19765C125.01 8.59415 126.188 8.29239 127.547 8.29239C129.214 8.29239 130.651 8.71794 131.857 9.56904C133.067 10.4201 133.998 11.6246 134.65 13.1823C135.301 14.7453 135.627 16.597 135.627 18.7377C135.627 20.8525 135.301 22.6966 134.65 24.2698C133.998 25.8431 133.067 27.0552 131.857 27.9063C130.651 28.7574 129.214 29.183 127.547 29.183C126.188 29.183 125.028 28.8735 124.069 28.2545C123.104 27.6355 122.33 26.707 121.745 25.4691H121.583V36.456ZM126.708 26.3976C128.447 26.3976 129.817 25.8482 130.818 24.7495C131.823 23.656 132.326 22.2194 132.326 20.4399V17.0355C132.326 15.2559 131.823 13.8168 130.818 12.7181C129.817 11.6246 128.447 11.0778 126.708 11.0778C125.78 11.0778 124.925 11.2454 124.146 11.5807C123.361 11.916 122.74 12.3673 122.283 12.9347C121.817 13.5021 121.583 14.1598 121.583 14.9077V22.3355C121.583 23.1866 121.817 23.9139 122.283 24.5174C122.74 25.1261 123.361 25.5903 124.146 25.9101C124.925 26.2351 125.78 26.3976 126.708 26.3976ZM148.286 29.183C146.491 29.183 144.926 28.7523 143.592 27.8908C142.258 27.0243 141.219 25.8095 140.475 24.2466C139.731 22.6888 139.36 20.8525 139.36 18.7377C139.36 16.6228 139.731 14.7839 140.475 13.221C141.219 11.6633 142.258 10.4511 143.592 9.58452C144.926 8.7231 146.491 8.29239 148.286 8.29239C150.056 8.29239 151.582 8.71021 152.865 9.54583C154.148 10.3866 155.135 11.542 155.828 13.0121C156.52 14.4822 156.867 16.1586 156.867 18.0413V19.5114H142.592V20.4399C142.592 22.1679 143.112 23.6044 144.154 24.7495C145.19 25.8998 146.632 26.4749 148.479 26.4749C149.736 26.4749 150.833 26.1783 151.772 25.5851C152.706 24.992 153.429 24.1409 153.942 23.0319L156.136 24.618C155.494 25.9591 154.494 27.0552 153.134 27.9063C151.775 28.7574 150.159 29.183 148.286 29.183ZM142.592 16.9194V17.1902H153.558V16.7647C153.558 15.5783 153.34 14.5467 152.903 13.6698C152.467 12.7929 151.852 12.1094 151.057 11.6194C150.261 11.1294 149.338 10.8844 148.286 10.8844C147.183 10.8844 146.203 11.1423 145.347 11.6581C144.485 12.1739 143.81 12.8883 143.323 13.8013C142.835 14.7195 142.592 15.7588 142.592 16.9194ZM165.024 28.7187H161.946V8.75663H165.024V12.4318H165.216C165.447 11.7871 165.806 11.1861 166.294 10.629C166.781 10.0771 167.409 9.62578 168.179 9.27503C168.948 8.92943 169.872 8.75663 170.949 8.75663H172.142V11.8515H170.334C169.231 11.8515 168.282 11.9985 167.486 12.2926C166.691 12.5917 166.083 12.9863 165.663 13.4763C165.237 13.9664 165.024 14.5338 165.024 15.1785V28.7187ZM185.84 29.183C183.583 29.183 181.646 28.6594 180.03 27.6123C178.414 26.5704 177.175 25.0229 176.313 22.97C175.456 20.9222 175.028 18.3895 175.028 15.372C175.028 12.3545 175.456 9.79342 176.313 7.68889C177.175 5.58952 178.414 3.99048 180.03 2.89179C181.646 1.79826 183.583 1.2515 185.84 1.2515C188.072 1.2515 189.957 1.76732 191.496 2.79895C193.035 3.83058 194.228 5.28776 195.074 7.17049L192.458 8.75663C191.919 7.36393 191.098 6.24718 189.995 5.4064C188.892 4.57078 187.507 4.15297 185.84 4.15297C183.531 4.15297 181.728 4.99633 180.43 6.68305C179.137 8.37493 178.491 10.6007 178.491 13.3603V17.3837C178.491 20.1433 179.137 22.3149 180.43 23.8984C181.728 25.4871 183.531 26.2815 185.84 26.2815C187.559 26.2815 188.995 25.8353 190.149 24.943C191.304 24.0557 192.15 22.8771 192.689 21.407L195.267 23.0319C194.42 24.9146 193.194 26.4104 191.588 27.5195C189.988 28.6285 188.072 29.183 185.84 29.183ZM207.464 29.183C205.694 29.183 204.135 28.7523 202.785 27.8908C201.441 27.0243 200.389 25.8095 199.63 24.2466C198.876 22.6888 198.499 20.8525 198.499 18.7377C198.499 16.6228 198.876 14.7839 199.63 13.221C200.389 11.6633 201.441 10.4511 202.785 9.58452C204.135 8.7231 205.694 8.29239 207.464 8.29239C209.234 8.29239 210.791 8.7231 212.135 9.58452C213.484 10.4511 214.536 11.6633 215.29 13.221C216.05 14.7839 216.429 16.6228 216.429 18.7377C216.429 20.8525 216.05 22.6888 215.29 24.2466C214.536 25.8095 213.484 27.0243 212.135 27.8908C210.791 28.7523 209.234 29.183 207.464 29.183ZM207.464 26.4362C209.131 26.4362 210.491 25.9204 211.543 24.8888C212.594 23.8572 213.12 22.2839 213.12 20.1691V17.3063C213.12 15.1914 212.594 13.6182 211.543 12.5866C210.491 11.5549 209.131 11.0391 207.464 11.0391C205.822 11.0391 204.468 11.5549 203.401 12.5866C202.339 13.6182 201.808 15.1914 201.808 17.3063V20.1691C201.808 22.2839 202.339 23.8572 203.401 24.8888C204.468 25.9204 205.822 26.4362 207.464 26.4362ZM228.234 29.183C226.592 29.183 225.164 28.7574 223.948 27.9063C222.727 27.0552 221.79 25.8431 221.139 24.2698C220.482 22.6966 220.154 20.8525 220.154 18.7377C220.154 16.597 220.482 14.7453 221.139 13.1823C221.79 11.6246 222.727 10.4201 223.948 9.56904C225.164 8.71794 226.592 8.29239 228.234 8.29239C229.594 8.29239 230.773 8.59415 231.774 9.19765C232.774 9.80632 233.531 10.7425 234.044 12.0063H234.198V0.0909119H237.276V28.7187H234.198V25.4691H234.044C233.454 26.707 232.679 27.6355 231.72 28.2545C230.756 28.8735 229.594 29.183 228.234 29.183ZM229.081 26.3976C230.03 26.3976 230.889 26.2351 231.658 25.9101C232.428 25.5903 233.044 25.1261 233.505 24.5174C233.967 23.9139 234.198 23.1866 234.198 22.3355V14.9077C234.198 14.1598 233.967 13.5021 233.505 12.9347C233.044 12.3673 232.428 11.916 231.658 11.5807C230.889 11.2454 230.03 11.0778 229.081 11.0778C227.362 11.0778 225.997 11.6246 224.987 12.7181C223.971 13.8168 223.463 15.2559 223.463 17.0355V20.4399C223.463 22.2194 223.971 23.656 224.987 24.7495C225.997 25.8482 227.362 26.3976 229.081 26.3976ZM251.282 29.183C249.486 29.183 247.921 28.7523 246.588 27.8908C245.254 27.0243 244.215 25.8095 243.471 24.2466C242.727 22.6888 242.355 20.8525 242.355 18.7377C242.355 16.6228 242.727 14.7839 243.471 13.221C244.215 11.6633 245.254 10.4511 246.588 9.58452C247.921 8.7231 249.486 8.29239 251.282 8.29239C253.052 8.29239 254.578 8.71021 255.861 9.54583C257.143 10.3866 258.131 11.542 258.823 13.0121C259.516 14.4822 259.862 16.1586 259.862 18.0413V19.5114H245.587V20.4399C245.587 22.1679 246.108 23.6044 247.149 24.7495C248.186 25.8998 249.627 26.4749 251.474 26.4749C252.731 26.4749 253.829 26.1783 254.768 25.5851C255.702 24.992 256.425 24.1409 256.938 23.0319L259.131 24.618C258.49 25.9591 257.489 27.0552 256.13 27.9063C254.77 28.7574 253.154 29.183 251.282 29.183ZM245.587 16.9194V17.1902H256.553V16.7647C256.553 15.5783 256.335 14.5467 255.899 13.6698C255.463 12.7929 254.847 12.1094 254.052 11.6194C253.257 11.1294 252.334 10.8844 251.282 10.8844C250.179 10.8844 249.199 11.1423 248.342 11.6581C247.48 12.1739 246.806 12.8883 246.318 13.8013C245.831 14.7195 245.587 15.7588 245.587 16.9194ZM268.019 28.7187H264.941V8.75663H268.019V12.4318H268.212C268.443 11.7871 268.802 11.1861 269.289 10.629C269.776 10.0771 270.405 9.62578 271.174 9.27503C271.944 8.92943 272.867 8.75663 273.945 8.75663H275.138V11.8515H273.329C272.226 11.8515 271.277 11.9985 270.482 12.2926C269.687 12.5917 269.076 12.9863 268.65 13.4763C268.23 13.9664 268.019 14.5338 268.019 15.1785V28.7187Z" fill="#EB84C0"/>
</g>
</g>
</g>
</g>
<g clip-path="url(#clip8_2012_1936)">
<g clip-path="url(#clip9_2012_1936)">
<path d="M21.1273 2.60459L18.6403 0.0909119L0.520142 18.2428L18.6338 36.456L21.1306 33.9456L5.51923 18.245L21.1273 2.60459Z" fill="#EB84C0"/>
<path d="M31.7734 2.60459L47.3794 18.245L31.7701 33.9456L34.267 36.456L52.3784 18.2428L34.2637 0.0909119L31.7734 2.60459Z" fill="#EB84C0"/>
</g>
</g>
</g>
</g>
</g>
</g>
<defs>
<clipPath id="clip0_2012_1936">
<rect width="276" height="37" fill="white"/>
</clipPath>
<clipPath id="clip1_2012_1936">
<rect width="276" height="37" fill="white" transform="translate(-0.167236 -0.226555)"/>
</clipPath>
<clipPath id="clip2_2012_1936">
<rect width="274.625" height="36.5469" fill="white" transform="translate(0.520142)"/>
</clipPath>
<clipPath id="clip3_2012_1936">
<rect width="274.625" height="36.5469" fill="white" transform="translate(0.520142)"/>
</clipPath>
<clipPath id="clip4_2012_1936">
<rect width="202.428" height="36.3651" fill="white" transform="translate(72.7172 0.0909119)"/>
</clipPath>
<clipPath id="clip5_2012_1936">
<rect width="202.428" height="36.3651" fill="white" transform="translate(72.7172 0.0909119)"/>
</clipPath>
<clipPath id="clip6_2012_1936">
<rect width="202.428" height="36.3651" fill="white" transform="translate(72.7172 0.0909119)"/>
</clipPath>
<clipPath id="clip7_2012_1936">
<rect width="202.428" height="36.3651" fill="white" transform="translate(72.7172 0.0909119)"/>
</clipPath>
<clipPath id="clip8_2012_1936">
<rect width="51.8583" height="36.3651" fill="white" transform="translate(0.520142 0.0909119)"/>
</clipPath>
<clipPath id="clip9_2012_1936">
<rect width="51.8583" height="36.3651" fill="white" transform="translate(0.520142 0.0909119)"/>
</clipPath>
</defs>
</svg>
