<svg width="48" height="49" viewBox="0 0 48 49" fill="none" xmlns="http://www.w3.org/2000/svg">
<g clip-path="url(#clip0_2013_53)">
<path d="M20.4 29.125L24 25.525L27.6 29.125L29 27.725L25.4 24.125L29 20.525L27.6 19.125L24 22.725L20.4 19.125L19 20.525L22.6 24.125L19 27.725L20.4 29.125ZM24 34.125C22.6167 34.125 21.3167 33.8625 20.1 33.3375C18.8833 32.8125 17.825 32.1 16.925 31.2C16.025 30.3 15.3125 29.2417 14.7875 28.025C14.2625 26.8083 14 25.5083 14 24.125C14 22.7417 14.2625 21.4417 14.7875 20.225C15.3125 19.0083 16.025 17.95 16.925 17.05C17.825 16.15 18.8833 15.4375 20.1 14.9125C21.3167 14.3875 22.6167 14.125 24 14.125C25.3833 14.125 26.6833 14.3875 27.9 14.9125C29.1167 15.4375 30.175 16.15 31.075 17.05C31.975 17.95 32.6875 19.0083 33.2125 20.225C33.7375 21.4417 34 22.7417 34 24.125C34 25.5083 33.7375 26.8083 33.2125 28.025C32.6875 29.2417 31.975 30.3 31.075 31.2C30.175 32.1 29.1167 32.8125 27.9 33.3375C26.6833 33.8625 25.3833 34.125 24 34.125ZM24 32.125C26.2333 32.125 28.125 31.35 29.675 29.8C31.225 28.25 32 26.3583 32 24.125C32 21.8917 31.225 20 29.675 18.45C28.125 16.9 26.2333 16.125 24 16.125C21.7667 16.125 19.875 16.9 18.325 18.45C16.775 20 16 21.8917 16 24.125C16 26.3583 16.775 28.25 18.325 29.8C19.875 31.35 21.7667 32.125 24 32.125Z" fill="#959595"/>
</g>
<defs>
<clipPath id="clip0_2013_53">
<rect y="4.125" width="48" height="40" rx="20" fill="white"/>
</clipPath>
</defs>
</svg>
